<?xml version="1.0" standalone="no"?>
<!DOCTYPE svg PUBLIC "-//W3C//DTD SVG 20010904//EN"
 "http://www.w3.org/TR/2001/REC-SVG-20010904/DTD/svg10.dtd">
<svg version="1.0" xmlns="http://www.w3.org/2000/svg"
 width="512.000000pt" height="512.000000pt" viewBox="0 0 512.000000 512.000000"
 preserveAspectRatio="xMidYMid meet">
<metadata>
Created by potrace 1.16, written by Peter Selinger 2001-2019
</metadata>
<g transform="translate(0.000000,512.000000) scale(0.100000,-0.100000)"
fill="#000000" stroke="none">
<path d="M0 2560 l0 -2560 2560 0 2560 0 0 2560 0 2560 -2560 0 -2560 0 0
-2560z m2741 1800 c598 -61 1110 -387 1419 -904 231 -385 309 -858 220 -1321
-103 -530 -476 -1023 -965 -1274 -208 -107 -329 -137 -371 -90 -18 20 -19 45
-24 368 -6 331 -7 349 -29 404 -12 32 -38 78 -57 102 -39 51 -47 45 86 66 285
44 521 197 619 400 66 136 92 255 98 439 5 135 3 166 -15 237 -26 102 -62 178
-121 257 l-46 61 17 60 c23 84 22 209 -3 315 -27 115 -35 126 -96 123 -82 -3
-261 -76 -392 -160 l-55 -35 -95 21 c-129 28 -244 41 -371 41 -127 0 -242 -13
-371 -41 l-95 -21 -59 37 c-108 70 -307 151 -380 156 -69 5 -71 3 -95 -72 -39
-125 -41 -286 -6 -387 13 -36 13 -42 -1 -54 -32 -26 -112 -160 -132 -221 -34
-105 -43 -158 -42 -275 0 -493 230 -787 682 -873 62 -12 124 -23 137 -26 23
-4 23 -4 -8 -40 -37 -41 -67 -107 -76 -164 -8 -48 -14 -53 -88 -74 -88 -26
-219 -25 -278 2 -62 28 -132 94 -180 169 -75 120 -190 197 -295 198 -98 1 -94
-48 10 -117 69 -45 143 -147 184 -249 51 -131 152 -212 300 -239 33 -7 116 -9
196 -7 l137 5 0 -187 c0 -174 -1 -189 -21 -214 -33 -41 -98 -36 -232 18 -413
169 -761 498 -963 911 -205 421 -238 940 -88 1395 99 301 311 618 545 816 397
336 896 495 1400 444z"/>
</g>
</svg>
