<svg width="50" height="50" viewBox="0 0 50 50" fill="none" xmlns="http://www.w3.org/2000/svg">
<path d="M43.75 0H6.25C2.79822 0 0 2.79822 0 6.25V43.75C0 47.2018 2.79822 50 6.25 50H43.75C47.2018 50 50 47.2018 50 43.75V6.25C50 2.79822 47.2018 0 43.75 0Z" fill="#D0422A"/>
<path d="M26.041 27.7699L24.209 26.3472C23.6512 25.8844 22.8879 25.2736 22.8879 24.1558C22.8879 23.0332 23.6512 22.3194 24.3131 21.6587C26.4472 19.9789 28.5791 18.1916 28.5791 14.4242C28.5791 10.5505 26.1418 8.513 24.9735 7.5458H28.1233L31.4291 5.46875H21.4134C18.6651 5.46875 14.7045 6.11909 11.8049 8.513C9.61883 10.3982 8.55317 12.9982 8.55317 15.3387C8.55317 19.3115 11.6041 23.3389 16.9905 23.3389C17.4997 23.3389 18.0559 23.289 18.6159 23.2369C18.3643 23.849 18.1098 24.3586 18.1098 25.2238C18.1098 26.8015 18.9209 27.7694 19.6356 28.6855C17.3471 28.8432 13.0741 29.0963 9.92383 31.0325C6.92437 32.8166 6.01099 35.4129 6.01099 37.2457C6.01099 41.0179 9.56678 44.5312 16.9389 44.5312C25.682 44.5312 30.3098 39.6941 30.3098 34.9049C30.3113 31.386 28.2784 29.6544 26.041 27.7699ZM19.382 21.9115C15.0084 21.9115 13.0268 16.2576 13.0268 12.8458C13.0268 11.5174 13.2781 10.1463 14.1435 9.07511C14.959 8.05512 16.379 7.39307 17.7047 7.39307C21.9211 7.39307 24.1079 13.098 24.1079 16.7669C24.1079 17.6849 24.0068 19.3115 22.8378 20.4879C22.0199 21.3033 20.6519 21.9115 19.382 21.9115ZM19.4317 42.3967C13.9931 42.3967 10.4859 39.7949 10.4859 36.1775C10.4859 32.5609 13.7376 31.3375 14.857 30.9326C16.9905 30.2143 19.7366 30.1142 20.1947 30.1142C20.703 30.1142 20.9573 30.1142 21.3618 30.1654C25.2286 32.9167 26.907 34.2885 26.907 36.8934C26.907 40.0474 24.3131 42.3967 19.4317 42.3967Z" fill="white"/>
<path d="M38.8786 29.5022V24.3776H43.989V21.8339H38.8786V16.7402H36.3627V21.8339H31.2776V24.3776H36.3627V29.5022H38.8786Z" fill="white"/>
</svg>
