<svg width="48" height="48" viewBox="0 0 48 48" fill="none" xmlns="http://www.w3.org/2000/svg">
<path d="M44 0H4C1.8 0 0 1.8 0 4V44C0 46.2 1.8 48 4 48H44C46.2 48 48 46.2 48 44V4C48 1.8 46.2 0 44 0Z" fill="#2CA7E0"/>
<path d="M39 15.2C37.9 15.7 36.2 16.3 35 16.5C36.3 15.7 37.5 13.9 38 12.5C37 13.1 35.9 13.9 34.8 14.3L34 13.5C32.9 12.3 31.8 11.5 30 11.5C26.6 11.5 24 14.1 24 17.5C24 17.9 24 18.2 24.1 18.5H24C18 18.5 14 17.2 11 13.5C10.5 14.4 10 15.4 10 16.5C10 18.6 11.3 20.4 13 21.5C12 21.5 10.8 21 10 20.5C10 23.5 14.2 26.9 17 27.5C16 28.5 12.4 27.6 12 27.5C12.8 29.9 15.3 31.4 18 31.5C15.9 33.1 13.4 34 10.5 34C10 34 9.5 34 9 33.9C11.7 35.6 15.5 36.5 19 36.5C30.3 36.5 36 27.6 36 19.5C36 19.2 36 18.8 36 18.5C37.2 17.6 38.2 16.4 39 15.2Z" fill="white"/>
</svg>
